<?xml version="1.0" encoding="UTF-8" standalone="no"?>
<!-- Created with Inkscape (http://www.inkscape.org/) -->

<svg
   xmlns:dc="http://purl.org/dc/elements/1.1/"
   xmlns:cc="http://creativecommons.org/ns#"
   xmlns:rdf="http://www.w3.org/1999/02/22-rdf-syntax-ns#"
   xmlns:svg="http://www.w3.org/2000/svg"
   xmlns="http://www.w3.org/2000/svg"
   xmlns:sodipodi="http://sodipodi.sourceforge.net/DTD/sodipodi-0.dtd"
   xmlns:inkscape="http://www.inkscape.org/namespaces/inkscape"
   width="744.09448819"
   height="1052.3622047"
   id="svg2"
   version="1.1"
   inkscape:version="0.48.4 r9939"
   sodipodi:docname="fov.svg"
   inkscape:export-filename="/home/development/Projects/tugas_akhir/presentasi/prog_1/fov/fov.png"
   inkscape:export-xdpi="90"
   inkscape:export-ydpi="90">
  <defs
     id="defs4" />
  <sodipodi:namedview
     id="base"
     pagecolor="#ffffff"
     bordercolor="#666666"
     borderopacity="1.0"
     inkscape:pageopacity="0.0"
     inkscape:pageshadow="2"
     inkscape:zoom="0.12374369"
     inkscape:cx="-2273.7436"
     inkscape:cy="2197.6735"
     inkscape:document-units="px"
     inkscape:current-layer="layer1"
     showgrid="false"
     inkscape:window-width="1366"
     inkscape:window-height="715"
     inkscape:window-x="-4"
     inkscape:window-y="-4"
     inkscape:window-maximized="1" />
  <metadata
     id="metadata7">
    <rdf:RDF>
      <cc:Work
         rdf:about="">
        <dc:format>image/svg+xml</dc:format>
        <dc:type
           rdf:resource="http://purl.org/dc/dcmitype/StillImage" />
        <dc:title />
      </cc:Work>
    </rdf:RDF>
  </metadata>
  <g
     inkscape:label="Layer 1"
     inkscape:groupmode="layer"
     id="layer1">
    <rect
       style="fill:#cccccc;stroke:#000000;stroke-width:20;stroke-miterlimit:4;stroke-dasharray:none"
       id="rect3006"
       width="1062.9921"
       height="1062.9921"
       x="-1777.1429"
       y="-1867.7728"
       inkscape:transform-center-y="-40.000002" />
    <rect
       style="fill:#cccccc;stroke:#000000;stroke-width:20;stroke-miterlimit:4;stroke-dasharray:none"
       id="rect3006-0"
       width="1062.9921"
       height="1062.9921"
       x="-697.16101"
       y="-1867.1344"
       inkscape:transform-center-y="-40.000002" />
    <rect
       style="fill:#cccccc;stroke:#000000;stroke-width:20;stroke-miterlimit:4;stroke-dasharray:none"
       id="rect3006-3"
       width="1062.9921"
       height="1062.9921"
       x="385.72247"
       y="-1871.175"
       inkscape:transform-center-y="-40.000002" />
    <rect
       style="fill:#cccccc;stroke:#000000;stroke-width:20;stroke-miterlimit:4;stroke-dasharray:none"
       id="rect3006-37"
       width="1062.9921"
       height="1062.9921"
       x="-701.20166"
       y="-784.25098"
       inkscape:transform-center-y="-40.000002" />
    <rect
       style="fill:#cccccc;stroke:#000000;stroke-width:20;stroke-miterlimit:4;stroke-dasharray:none"
       id="rect3006-37-9"
       width="1062.9921"
       height="1062.9921"
       x="-1780.0446"
       y="-788.29156"
       inkscape:transform-center-y="-40.000002" />
    <rect
       style="fill:#cccccc;stroke:#000000;stroke-width:20;stroke-miterlimit:4;stroke-dasharray:none"
       id="rect3006-37-4"
       width="1062.9921"
       height="1062.9921"
       x="377.64124"
       y="-796.37274"
       inkscape:transform-center-y="-40.000002" />
    <path
       sodipodi:type="arc"
       style="fill:#0000ff;stroke-width:20;stroke-miterlimit:4;stroke-dasharray:none"
       id="path2985"
       sodipodi:cx="80"
       sodipodi:cy="290.93362"
       sodipodi:rx="31.428572"
       sodipodi:ry="35.714287"
       d="m 111.42857,290.93362 a 31.428572,35.714287 0 1 1 -62.857142,0 31.428572,35.714287 0 1 1 62.857142,0 z"
       transform="matrix(5.4820597,0,0,4.8242125,-610.8227,-2322.9928)" />
    <path
       sodipodi:type="arc"
       style="fill:#0000ff;stroke-width:20;stroke-miterlimit:4;stroke-dasharray:none"
       id="path2985-2"
       sodipodi:cx="80"
       sodipodi:cy="290.93362"
       sodipodi:rx="31.428572"
       sodipodi:ry="35.714287"
       d="m 111.42857,290.93362 a 31.428572,35.714287 0 1 1 -62.857142,0 31.428572,35.714287 0 1 1 62.857142,0 z"
       transform="matrix(5.4820597,0,0,4.8242125,-268.85914,-2324.3678)" />
    <path
       sodipodi:type="arc"
       style="fill:#0000ff;stroke-width:20;stroke-miterlimit:4;stroke-dasharray:none"
       id="path2985-9"
       sodipodi:cx="80"
       sodipodi:cy="290.93362"
       sodipodi:rx="31.428572"
       sodipodi:ry="35.714287"
       d="m 111.42857,290.93362 a 31.428572,35.714287 0 1 1 -62.857142,0 31.428572,35.714287 0 1 1 62.857142,0 z"
       transform="matrix(5.4820597,0,0,4.8242125,69.571692,-2323.3873)" />
    <path
       sodipodi:type="arc"
       style="fill:#0000ff;stroke-width:20;stroke-miterlimit:4;stroke-dasharray:none"
       id="path2985-8"
       sodipodi:cx="80"
       sodipodi:cy="290.93362"
       sodipodi:rx="31.428572"
       sodipodi:ry="35.714287"
       d="m 111.42857,290.93362 a 31.428572,35.714287 0 1 1 -62.857142,0 31.428572,35.714287 0 1 1 62.857142,0 z"
       transform="matrix(5.4820597,0,0,4.8242125,408.98294,-2326.7347)" />
    <path
       sodipodi:type="arc"
       style="fill:#0000ff;stroke-width:20;stroke-miterlimit:4;stroke-dasharray:none"
       id="path2985-3"
       sodipodi:cx="80"
       sodipodi:cy="290.93362"
       sodipodi:rx="31.428572"
       sodipodi:ry="35.714287"
       d="m 111.42857,290.93362 a 31.428572,35.714287 0 1 1 -62.857142,0 31.428572,35.714287 0 1 1 62.857142,0 z"
       transform="matrix(5.4820597,0,0,4.8242125,-955.76287,-2322.9811)" />
    <path
       sodipodi:type="arc"
       style="fill:#0000ff;stroke-width:20;stroke-miterlimit:4;stroke-dasharray:none"
       id="path2985-20"
       sodipodi:cx="80"
       sodipodi:cy="290.93362"
       sodipodi:rx="31.428572"
       sodipodi:ry="35.714287"
       d="m 111.42857,290.93362 a 31.428572,35.714287 0 1 1 -62.857142,0 31.428572,35.714287 0 1 1 62.857142,0 z"
       transform="matrix(5.4820597,0,0,4.8242125,-1301.4219,-2325.7159)" />
    <path
       sodipodi:type="arc"
       style="fill:#0000ff;stroke-width:20;stroke-miterlimit:4;stroke-dasharray:none"
       id="path2985-4"
       sodipodi:cx="80"
       sodipodi:cy="290.93362"
       sodipodi:rx="31.428572"
       sodipodi:ry="35.714287"
       d="m 111.42857,290.93362 a 31.428572,35.714287 0 1 1 -62.857142,0 31.428572,35.714287 0 1 1 62.857142,0 z"
       transform="matrix(5.4820597,0,0,4.8242125,-1647.1362,-2325.7159)" />
    <path
       sodipodi:type="arc"
       style="fill:#0000ff;stroke-width:20;stroke-miterlimit:4;stroke-dasharray:none"
       id="path2985-49"
       sodipodi:cx="80"
       sodipodi:cy="290.93362"
       sodipodi:rx="31.428572"
       sodipodi:ry="35.714287"
       d="m 111.42857,290.93362 a 31.428572,35.714287 0 1 1 -62.857142,0 31.428572,35.714287 0 1 1 62.857142,0 z"
       transform="matrix(5.4820597,0,0,4.8242125,-613.168,-1680.7269)" />
    <path
       sodipodi:type="arc"
       style="fill:#0000ff;stroke-width:20;stroke-miterlimit:4;stroke-dasharray:none"
       id="path2985-2-2"
       sodipodi:cx="80"
       sodipodi:cy="290.93362"
       sodipodi:rx="31.428572"
       sodipodi:ry="35.714287"
       d="m 111.42857,290.93362 a 31.428572,35.714287 0 1 1 -62.857142,0 31.428572,35.714287 0 1 1 62.857142,0 z"
       transform="matrix(5.4820597,0,0,4.8242125,-271.20443,-1682.1019)" />
    <path
       sodipodi:type="arc"
       style="fill:#0000ff;stroke-width:20;stroke-miterlimit:4;stroke-dasharray:none"
       id="path2985-9-5"
       sodipodi:cx="80"
       sodipodi:cy="290.93362"
       sodipodi:rx="31.428572"
       sodipodi:ry="35.714287"
       d="m 111.42857,290.93362 a 31.428572,35.714287 0 1 1 -62.857142,0 31.428572,35.714287 0 1 1 62.857142,0 z"
       transform="matrix(5.4820597,0,0,4.8242125,67.226401,-1681.1214)" />
    <path
       sodipodi:type="arc"
       style="fill:#0000ff;stroke-width:20;stroke-miterlimit:4;stroke-dasharray:none"
       id="path2985-8-4"
       sodipodi:cx="80"
       sodipodi:cy="290.93362"
       sodipodi:rx="31.428572"
       sodipodi:ry="35.714287"
       d="m 111.42857,290.93362 a 31.428572,35.714287 0 1 1 -62.857142,0 31.428572,35.714287 0 1 1 62.857142,0 z"
       transform="matrix(5.4820597,0,0,4.8242125,406.6377,-1684.4688)" />
    <path
       sodipodi:type="arc"
       style="fill:#0000ff;stroke-width:20;stroke-miterlimit:4;stroke-dasharray:none"
       id="path2985-3-3"
       sodipodi:cx="80"
       sodipodi:cy="290.93362"
       sodipodi:rx="31.428572"
       sodipodi:ry="35.714287"
       d="m 111.42857,290.93362 a 31.428572,35.714287 0 1 1 -62.857142,0 31.428572,35.714287 0 1 1 62.857142,0 z"
       transform="matrix(5.4820597,0,0,4.8242125,-958.10817,-1680.7152)" />
    <path
       sodipodi:type="arc"
       style="fill:#0000ff;stroke-width:20;stroke-miterlimit:4;stroke-dasharray:none"
       id="path2985-20-0"
       sodipodi:cx="80"
       sodipodi:cy="290.93362"
       sodipodi:rx="31.428572"
       sodipodi:ry="35.714287"
       d="m 111.42857,290.93362 a 31.428572,35.714287 0 1 1 -62.857142,0 31.428572,35.714287 0 1 1 62.857142,0 z"
       transform="matrix(5.4820597,0,0,4.8242125,-1303.7672,-1683.45)" />
    <path
       sodipodi:type="arc"
       style="fill:#0000ff;stroke-width:20;stroke-miterlimit:4;stroke-dasharray:none"
       id="path2985-4-8"
       sodipodi:cx="80"
       sodipodi:cy="290.93362"
       sodipodi:rx="31.428572"
       sodipodi:ry="35.714287"
       d="m 111.42857,290.93362 a 31.428572,35.714287 0 1 1 -62.857142,0 31.428572,35.714287 0 1 1 62.857142,0 z"
       transform="matrix(5.4820597,0,0,4.8242125,-1649.4815,-1683.45)" />
    <g
       id="g3960"
       transform="translate(1761.706,-88.893424)"
       style="fill:#00ff00;stroke:#ff0000">
      <path
         inkscape:connector-curvature="0"
         id="path3940"
         d="M -3067.7189,-1663.1855 -1966.8814,406.1222"
         style="fill:#00ff00;stroke:#ff0000;stroke-width:20;stroke-linecap:butt;stroke-linejoin:miter;stroke-miterlimit:4;stroke-opacity:1;stroke-dasharray:none" />
      <path
         inkscape:connector-curvature="0"
         id="path3940-6"
         d="M -800.78466,-1624.9271 -1972.3022,405.20201"
         style="fill:#00ff00;stroke:#ff0000;stroke-width:20;stroke-linecap:butt;stroke-linejoin:miter;stroke-miterlimit:4;stroke-opacity:1;stroke-dasharray:none" />
    </g>
    <text
       xml:space="preserve"
       style="font-size:144px;font-style:normal;font-weight:normal;line-height:125%;letter-spacing:0px;word-spacing:0px;fill:#000000;fill-opacity:1;stroke:none;font-family:Sans"
       x="-317.996"
       y="60.808655"
       id="text3966"
       sodipodi:linespacing="125%"><tspan
         sodipodi:role="line"
         id="tspan3968"
         x="-317.996"
         y="60.808655">58</tspan></text>
  </g>
</svg>
